<svg xmlns="http://www.w3.org/2000/svg" width="570" height="325" viewBox="30 -5 570 325">
<rect x="30" y="-5" width="570" height="325" fill="#ffffff"/>
<text x="150" y="32" font-family="Virgil, Segoe Print, Comic Sans MS, sans-serif" font-size="20" fill="#1e1e1e" text-anchor="start" opacity="1">LLM Parameter Control Panel</text>
<rect x="50" y="60" width="250" height="35" rx="8.75" ry="8.75" fill="#a5d8ff" stroke="#1e1e1e" stroke-width="2" opacity="1" />
<text x="175" y="80.88" font-family="Virgil, Segoe Print, Comic Sans MS, sans-serif" font-size="15" fill="#1e1e1e" text-anchor="middle" opacity="1">temperature</text>
<rect x="50" y="100" width="250" height="30" rx="7.5" ry="7.5" fill="#ffffff" stroke="#1e1e1e" stroke-width="2" opacity="1" />
<text x="175" y="117.92" font-family="Virgil, Segoe Print, Comic Sans MS, sans-serif" font-size="13" fill="#1e1e1e" text-anchor="middle" opacity="1">0.0 – 2.0</text>
<rect x="330" y="60" width="250" height="35" rx="8.75" ry="8.75" fill="#a5d8ff" stroke="#1e1e1e" stroke-width="2" opacity="1" />
<text x="455" y="80.88" font-family="Virgil, Segoe Print, Comic Sans MS, sans-serif" font-size="15" fill="#1e1e1e" text-anchor="middle" opacity="1">top_p</text>
<rect x="330" y="100" width="250" height="30" rx="7.5" ry="7.5" fill="#ffffff" stroke="#1e1e1e" stroke-width="2" opacity="1" />
<text x="455" y="117.92" font-family="Virgil, Segoe Print, Comic Sans MS, sans-serif" font-size="13" fill="#1e1e1e" text-anchor="middle" opacity="1">0.0 – 1.0</text>
<rect x="50" y="145" width="250" height="35" rx="8.75" ry="8.75" fill="#b2f2bb" stroke="#1e1e1e" stroke-width="2" opacity="1" />
<text x="175" y="165.88" font-family="Virgil, Segoe Print, Comic Sans MS, sans-serif" font-size="15" fill="#1e1e1e" text-anchor="middle" opacity="1">max_tokens</text>
<rect x="50" y="185" width="250" height="30" rx="7.5" ry="7.5" fill="#ffffff" stroke="#1e1e1e" stroke-width="2" opacity="1" />
<text x="175" y="202.93" font-family="Virgil, Segoe Print, Comic Sans MS, sans-serif" font-size="13" fill="#1e1e1e" text-anchor="middle" opacity="1">1 – 128000</text>
<rect x="330" y="145" width="250" height="35" rx="8.75" ry="8.75" fill="#ffd8a8" stroke="#1e1e1e" stroke-width="2" opacity="1" />
<text x="455" y="165.88" font-family="Virgil, Segoe Print, Comic Sans MS, sans-serif" font-size="15" fill="#1e1e1e" text-anchor="middle" opacity="1">frequency_penalty</text>
<rect x="330" y="185" width="250" height="30" rx="7.5" ry="7.5" fill="#ffffff" stroke="#1e1e1e" stroke-width="2" opacity="1" />
<text x="455" y="202.93" font-family="Virgil, Segoe Print, Comic Sans MS, sans-serif" font-size="13" fill="#1e1e1e" text-anchor="middle" opacity="1">-2.0 – 2.0</text>
<rect x="50" y="230" width="250" height="35" rx="8.75" ry="8.75" fill="#ffd8a8" stroke="#1e1e1e" stroke-width="2" opacity="1" />
<text x="175" y="250.88" font-family="Virgil, Segoe Print, Comic Sans MS, sans-serif" font-size="15" fill="#1e1e1e" text-anchor="middle" opacity="1">presence_penalty</text>
<rect x="50" y="270" width="250" height="30" rx="7.5" ry="7.5" fill="#ffffff" stroke="#1e1e1e" stroke-width="2" opacity="1" />
<text x="175" y="287.93" font-family="Virgil, Segoe Print, Comic Sans MS, sans-serif" font-size="13" fill="#1e1e1e" text-anchor="middle" opacity="1">-2.0 – 2.0</text>
<rect x="330" y="230" width="250" height="35" rx="8.75" ry="8.75" fill="#dee2e6" stroke="#1e1e1e" stroke-width="2" opacity="1" />
<text x="455" y="250.88" font-family="Virgil, Segoe Print, Comic Sans MS, sans-serif" font-size="15" fill="#1e1e1e" text-anchor="middle" opacity="1">seed</text>
<rect x="330" y="270" width="250" height="30" rx="7.5" ry="7.5" fill="#ffffff" stroke="#1e1e1e" stroke-width="2" opacity="1" />
<text x="455" y="287.93" font-family="Virgil, Segoe Print, Comic Sans MS, sans-serif" font-size="13" fill="#1e1e1e" text-anchor="middle" opacity="1">integer</text>
</svg>