<svg xmlns="http://www.w3.org/2000/svg" width="680" height="220" viewBox="10 0 680 220">
<rect x="10" y="0" width="680" height="220" fill="#ffffff"/>
<text x="80" y="35.3" font-family="Virgil, Segoe Print, Comic Sans MS, sans-serif" font-size="18" fill="#e03131" text-anchor="start" opacity="1">Stateless</text>
<rect x="30" y="50" width="200" height="50" rx="12.5" ry="12.5" fill="#ffc9c9" stroke="#1e1e1e" stroke-width="2" opacity="1" />
<text x="130" y="77.7" font-family="Virgil, Segoe Print, Comic Sans MS, sans-serif" font-size="12" fill="#1e1e1e" text-anchor="middle" opacity="1">Turn 1: request → response</text>
<rect x="30" y="120" width="200" height="50" rx="12.5" ry="12.5" fill="#ffc9c9" stroke="#1e1e1e" stroke-width="2" opacity="1" />
<text x="130" y="147.7" font-family="Virgil, Segoe Print, Comic Sans MS, sans-serif" font-size="12" fill="#1e1e1e" text-anchor="middle" opacity="1">Turn 2: request → response</text>
<text x="70" y="191.05" font-family="Virgil, Segoe Print, Comic Sans MS, sans-serif" font-size="13" fill="#868e96" text-anchor="start" opacity="1">(no connection)</text>
<path d="M 270 20 L 270 200" fill="none" stroke="#1e1e1e" stroke-width="2" stroke-linejoin="round" stroke-linecap="round" stroke-dasharray="8.0 4.0" opacity="1" />
<text x="340" y="35.3" font-family="Virgil, Segoe Print, Comic Sans MS, sans-serif" font-size="18" fill="#2f9e44" text-anchor="start" opacity="1">Your Code Adds State</text>
<rect x="300" y="50" width="250" height="50" rx="12.5" ry="12.5" fill="#b2f2bb" stroke="#1e1e1e" stroke-width="2" opacity="1" />
<text x="425" y="77.7" font-family="Virgil, Segoe Print, Comic Sans MS, sans-serif" font-size="12" fill="#1e1e1e" text-anchor="middle" opacity="1">Turn 1: request → response</text>
<rect x="300" y="120" width="250" height="50" rx="12.5" ry="12.5" fill="#b2f2bb" stroke="#1e1e1e" stroke-width="2" opacity="1" />
<text x="425" y="147.47" font-family="Virgil, Segoe Print, Comic Sans MS, sans-serif" font-size="11" fill="#1e1e1e" text-anchor="middle" opacity="1">Turn 2: [history] + request → response</text>
<rect x="570" y="70" width="100" height="80" rx="20" ry="20" fill="#ffec99" stroke="#1e1e1e" stroke-width="2" opacity="1" />
<text x="620" y="112.92" font-family="Virgil, Segoe Print, Comic Sans MS, sans-serif" font-size="13" fill="#1e1e1e" text-anchor="middle" opacity="1">messages[]</text>
<g><path d="M 550 95 L 570 95" fill="none" stroke="#1e1e1e" stroke-width="2" stroke-linejoin="round" stroke-linecap="round" opacity="1" /><polygon points="570,95 562,99 562,91" fill="#1e1e1e" stroke="#1e1e1e" /></g>
</svg>