<svg xmlns="http://www.w3.org/2000/svg" width="630" height="127.5" viewBox="0 60 630 127.5">
<rect x="0" y="60" width="630" height="127.5" fill="#ffffff"/>
<rect x="20" y="80" width="90" height="45" rx="11.25" ry="11.25" fill="#ffc9c9" stroke="#1e1e1e" stroke-width="2" opacity="1" />
<text x="65" y="105.65" font-family="Virgil, Segoe Print, Comic Sans MS, sans-serif" font-size="14" fill="#1e1e1e" text-anchor="middle" opacity="1">Call 1</text>
<text x="120" y="100.2" font-family="Virgil, Segoe Print, Comic Sans MS, sans-serif" font-size="12" fill="#868e96" text-anchor="start" opacity="1">wait</text>
<text x="120" y="115.2" font-family="Virgil, Segoe Print, Comic Sans MS, sans-serif" font-size="12" fill="#868e96" text-anchor="start" opacity="1">1s</text>
<rect x="160" y="80" width="100" height="45" rx="11.25" ry="11.25" fill="#ffc9c9" stroke="#1e1e1e" stroke-width="2" opacity="1" />
<text x="210" y="105.65" font-family="Virgil, Segoe Print, Comic Sans MS, sans-serif" font-size="14" fill="#1e1e1e" text-anchor="middle" opacity="1">Retry 1</text>
<text x="275" y="100.2" font-family="Virgil, Segoe Print, Comic Sans MS, sans-serif" font-size="12" fill="#868e96" text-anchor="start" opacity="1">wait</text>
<text x="275" y="115.2" font-family="Virgil, Segoe Print, Comic Sans MS, sans-serif" font-size="12" fill="#868e96" text-anchor="start" opacity="1">2s</text>
<rect x="320" y="80" width="100" height="45" rx="11.25" ry="11.25" fill="#ffc9c9" stroke="#1e1e1e" stroke-width="2" opacity="1" />
<text x="370" y="105.65" font-family="Virgil, Segoe Print, Comic Sans MS, sans-serif" font-size="14" fill="#1e1e1e" text-anchor="middle" opacity="1">Retry 2</text>
<text x="440" y="100.2" font-family="Virgil, Segoe Print, Comic Sans MS, sans-serif" font-size="12" fill="#868e96" text-anchor="start" opacity="1">wait</text>
<text x="440" y="115.2" font-family="Virgil, Segoe Print, Comic Sans MS, sans-serif" font-size="12" fill="#868e96" text-anchor="start" opacity="1">4s</text>
<rect x="500" y="80" width="110" height="45" rx="11.25" ry="11.25" fill="#b2f2bb" stroke="#1e1e1e" stroke-width="2" opacity="1" />
<text x="555" y="105.65" font-family="Virgil, Segoe Print, Comic Sans MS, sans-serif" font-size="14" fill="#1e1e1e" text-anchor="middle" opacity="1">Retry 3 ✓</text>
<g><path d="M 110 102 L 160 102" fill="none" stroke="#1e1e1e" stroke-width="2" stroke-linejoin="round" stroke-linecap="round" opacity="1" /><polygon points="160,102 152,106 152,98" fill="#1e1e1e" stroke="#1e1e1e" /></g>
<g><path d="M 260 102 L 320 102" fill="none" stroke="#1e1e1e" stroke-width="2" stroke-linejoin="round" stroke-linecap="round" opacity="1" /><polygon points="320,102 312,106 312,98" fill="#1e1e1e" stroke="#1e1e1e" /></g>
<g><path d="M 420 102 L 500 102" fill="none" stroke="#1e1e1e" stroke-width="2" stroke-linejoin="round" stroke-linecap="round" opacity="1" /><polygon points="500,102 492,106 492,98" fill="#1e1e1e" stroke="#1e1e1e" /></g>
<text x="150" y="161.9" font-family="Virgil, Segoe Print, Comic Sans MS, sans-serif" font-size="14" fill="#868e96" text-anchor="start" opacity="1">Exponential backoff: 1s → 2s → 4s → success</text>
</svg>