<svg xmlns="http://www.w3.org/2000/svg" width="780.1" height="225" viewBox="10 10 780.1 225">
<rect x="10" y="10" width="780.1" height="225" fill="#ffffff"/>
<rect x="30" y="100" width="160" height="50" rx="12.5" ry="12.5" fill="#dee2e6" stroke="#1e1e1e" stroke-width="2" opacity="1" />
<text x="110" y="119.4" font-family="Virgil, Segoe Print, Comic Sans MS, sans-serif" font-size="14" fill="#1e1e1e" text-anchor="middle" opacity="1">Same Prompt</text>
<text x="110" y="136.9" font-family="Virgil, Segoe Print, Comic Sans MS, sans-serif" font-size="14" fill="#1e1e1e" text-anchor="middle" opacity="1">Template</text>
<rect x="250" y="30" width="180" height="45" rx="11.25" ry="11.25" fill="#ffffff" stroke="#1e1e1e" stroke-width="2" opacity="1" />
<text x="340" y="55.42" font-family="Virgil, Segoe Print, Comic Sans MS, sans-serif" font-size="13" fill="#1e1e1e" text-anchor="middle" opacity="1">James applied...</text>
<rect x="250" y="100" width="180" height="45" rx="11.25" ry="11.25" fill="#ffffff" stroke="#1e1e1e" stroke-width="2" opacity="1" />
<text x="340" y="125.42" font-family="Virgil, Segoe Print, Comic Sans MS, sans-serif" font-size="13" fill="#1e1e1e" text-anchor="middle" opacity="1">Lakisha applied...</text>
<rect x="250" y="170" width="180" height="45" rx="11.25" ry="11.25" fill="#ffffff" stroke="#1e1e1e" stroke-width="2" opacity="1" />
<text x="340" y="195.43" font-family="Virgil, Segoe Print, Comic Sans MS, sans-serif" font-size="13" fill="#1e1e1e" text-anchor="middle" opacity="1">Wei applied...</text>
<rect x="490" y="30" width="160" height="45" rx="11.25" ry="11.25" fill="#b2f2bb" stroke="#1e1e1e" stroke-width="2" opacity="1" />
<text x="570" y="55.42" font-family="Virgil, Segoe Print, Comic Sans MS, sans-serif" font-size="13" fill="#1e1e1e" text-anchor="middle" opacity="1">Strong candidate</text>
<rect x="490" y="100" width="160" height="45" rx="11.25" ry="11.25" fill="#ffec99" stroke="#1e1e1e" stroke-width="2" opacity="1" />
<text x="570" y="125.42" font-family="Virgil, Segoe Print, Comic Sans MS, sans-serif" font-size="13" fill="#1e1e1e" text-anchor="middle" opacity="1">Needs review</text>
<rect x="490" y="170" width="160" height="45" rx="11.25" ry="11.25" fill="#ffd8a8" stroke="#1e1e1e" stroke-width="2" opacity="1" />
<text x="570" y="195.43" font-family="Virgil, Segoe Print, Comic Sans MS, sans-serif" font-size="13" fill="#1e1e1e" text-anchor="middle" opacity="1">Consider further</text>
<g><path d="M 190 110 L 250 55" fill="none" stroke="#1e1e1e" stroke-width="2" stroke-linejoin="round" stroke-linecap="round" opacity="1" /><polygon points="250,55 246.81,63.35 241.4,57.46" fill="#1e1e1e" stroke="#1e1e1e" /></g>
<g><path d="M 190 125 L 250 125" fill="none" stroke="#1e1e1e" stroke-width="2" stroke-linejoin="round" stroke-linecap="round" opacity="1" /><polygon points="250,125 242,129 242,121" fill="#1e1e1e" stroke="#1e1e1e" /></g>
<g><path d="M 190 140 L 250 195" fill="none" stroke="#1e1e1e" stroke-width="2" stroke-linejoin="round" stroke-linecap="round" opacity="1" /><polygon points="250,195 241.4,192.54 246.81,186.65" fill="#1e1e1e" stroke="#1e1e1e" /></g>
<g><path d="M 430 52 L 490 52" fill="none" stroke="#1e1e1e" stroke-width="2" stroke-linejoin="round" stroke-linecap="round" opacity="1" /><polygon points="490,52 482,56 482,48" fill="#1e1e1e" stroke="#1e1e1e" /></g>
<g><path d="M 430 122 L 490 122" fill="none" stroke="#1e1e1e" stroke-width="2" stroke-linejoin="round" stroke-linecap="round" opacity="1" /><polygon points="490,122 482,126 482,118" fill="#1e1e1e" stroke="#1e1e1e" /></g>
<g><path d="M 430 192 L 490 192" fill="none" stroke="#1e1e1e" stroke-width="2" stroke-linejoin="round" stroke-linecap="round" opacity="1" /><polygon points="490,192 482,196 482,188" fill="#1e1e1e" stroke="#1e1e1e" /></g>
<text x="670" y="110.4" font-family="Virgil, Segoe Print, Comic Sans MS, sans-serif" font-size="24" fill="#e03131" text-anchor="start" opacity="1">BIAS!</text>
<text x="670" y="136.05" font-family="Virgil, Segoe Print, Comic Sans MS, sans-serif" font-size="13" fill="#e03131" text-anchor="start" opacity="1">Outputs should</text>
<text x="670" y="152.3" font-family="Virgil, Segoe Print, Comic Sans MS, sans-serif" font-size="13" fill="#e03131" text-anchor="start" opacity="1">be identical</text>
</svg>